<svg aria-hidden="true" style="position: absolute; width: 0; height: 0; overflow: hidden;" version="1.1" xmlns="http://www.w3.org/2000/svg" xmlns:xlink="http://www.w3.org/1999/xlink">
<defs>
<symbol id="icon-logo" viewBox="0 0 32 32">
<path fill="#fcf1e0" style="fill: var(--color1, #fcf1e0)" d="M3.944 20.076l10.777-17.424 0.64-0.675 8.235 5.491 0.057 3.315 2.009 3.28-8.88 14.076-12.839-8.063z"></path>
<path fill="none" stroke="#fd9222" style="stroke: var(--color2, #fd9222)" stroke-linejoin="round" stroke-linecap="round" stroke-miterlimit="4" stroke-width="2.6667" d="M21.635 23.88l-14.187-8.864M11.361 8.599l14.185 8.864M10.629 25.864l11.736-19.249M27.176 14.788c-3.040-1.899-4.233-3.383-2.277-6.591l-9.627-6.016-11.735 19.251 14.187 8.864 9.453-15.507z"></path>
</symbol>
<symbol id="icon-instagram" viewBox="0 0 32 32">
<path stroke-linejoin="round" stroke-linecap="round" stroke-miterlimit="4" stroke-width="2.6667" d="M22.667 2.667h-13.333c-3.682 0-6.667 2.985-6.667 6.667v0 13.333c0 3.682 2.985 6.667 6.667 6.667v0h13.333c3.682 0 6.667-2.985 6.667-6.667v0-13.333c0-3.682-2.985-6.667-6.667-6.667v0z"></path>
<path stroke-linejoin="round" stroke-linecap="round" stroke-miterlimit="4" stroke-width="2.6667" d="M21.333 15.16c0.037 0.235 0.058 0.506 0.058 0.782 0 2.946-2.388 5.334-5.334 5.334-2.67 0-4.881-1.962-5.272-4.522l-0.004-0.030c-0.037-0.235-0.058-0.506-0.058-0.782 0-2.946 2.388-5.334 5.334-5.334 2.67 0 4.881 1.962 5.272 4.522l0.004 0.030z"></path>
<path stroke-linejoin="round" stroke-linecap="round" stroke-miterlimit="4" stroke-width="2.6667" d="M21.333 15.16c0.037 0.235 0.058 0.506 0.058 0.782 0 2.946-2.388 5.334-5.334 5.334-2.67 0-4.881-1.962-5.272-4.522l-0.004-0.030c-0.037-0.235-0.058-0.506-0.058-0.782 0-2.946 2.388-5.334 5.334-5.334 2.67 0 4.881 1.962 5.272 4.522l0.004 0.030zM23.333 8.667h0.013M23.333 8.667h0.013"></path>
</symbol>
<symbol id="icon-twitter" viewBox="0 0 37 32">
<path stroke-linejoin="round" stroke-linecap="round" stroke-miterlimit="4" stroke-width="3.0476" d="M35.048 3.048c-1.372 0.979-2.961 1.773-4.667 2.3l-0.118 0.031c-1.258-1.441-3.099-2.347-5.151-2.347-3.77 0-6.827 3.056-6.827 6.827 0 0.032 0 0.064 0.001 0.096l-0-0.005v1.524c-0.125 0.003-0.272 0.005-0.42 0.005-2.664 0-5.178-0.641-7.396-1.778l0.092 0.043c-2.392-1.204-5.211-4.072-6.752-6.263 0 0-5.333 14.804 8.381 20.899-2.791 1.917-6.243 3.062-9.962 3.062-0.248 0-0.495-0.005-0.74-0.015l0.035 0.001c13.714 7.619 30.476 0 30.476-17.524 0-0.425-0.043-0.847-0.122-1.265 1.512-1.491 2.621-3.387 3.152-5.511l0.017-0.081z"></path>
</symbol>
<symbol id="icon-burger" viewBox="0 0 45 32">
<path d="M1.2 3.2c0-1.104 0.896-2 2-2h38.4c1.105 0 2 0.895 2 2s-0.895 2-2 2v0h-38.4c-1.104 0-2-0.896-2-2zM1.2 16c0-1.104 0.896-2 2-2h38.4c1.105 0 2 0.895 2 2s-0.895 2-2 2v0h-38.4c-1.104 0-2-0.896-2-2zM1.2 28.8c0-1.104 0.896-2 2-2h38.4c1.105 0 2 0.895 2 2s-0.895 2-2 2v0h-38.4c-1.104 0-2-0.896-2-2z"></path>
</symbol>
<symbol id="icon-close" viewBox="0 0 32 32">
<path fill="#fff" style="fill: var(--color1, #fff)" d="M1.051 1.051c0.414-0.413 0.985-0.669 1.616-0.669s1.202 0.256 1.616 0.669l11.717 11.717 11.717-11.717c0.414-0.414 0.986-0.67 1.617-0.67 1.263 0 2.286 1.024 2.286 2.286 0 0.631-0.256 1.202-0.669 1.616v0l-11.721 11.717 11.719 11.717c0.414 0.414 0.67 0.986 0.67 1.617 0 1.263-1.024 2.287-2.287 2.287-0.632 0-1.203-0.256-1.617-0.67l-11.714-11.721-11.717 11.719c-0.414 0.413-0.985 0.669-1.616 0.669-1.263 0-2.286-1.024-2.286-2.286 0-0.632 0.256-1.203 0.67-1.617l11.717-11.714-11.717-11.717c-0.413-0.414-0.669-0.985-0.669-1.616s0.256-1.202 0.669-1.616v0z"></path>
</symbol>
</defs>
</svg>
